<?xml version="1.0" encoding="UTF-8"?>
<svg xmlns="http://www.w3.org/2000/svg" xmlns:xlink="http://www.w3.org/1999/xlink" width="720pt" height="720pt" viewBox="0 0 720 720" version="1.1">
<g id="surface1">
<path style=" stroke:none;fill-rule:nonzero;fill:rgb(57.998657%,58.799744%,59.599304%);fill-opacity:1;" d="M 648.332031 720 L 720 720 L 720 0 L 648.332031 0 Z M 648.332031 720 "/>
<path style="fill:none;stroke-width:10;stroke-linecap:butt;stroke-linejoin:miter;stroke:rgb(57.998657%,58.799744%,59.599304%);stroke-opacity:1;stroke-miterlimit:10;" d="M 6483.320313 0 L 6483.320313 7200 L 7200 7200 L 7200 0 Z M 6483.320313 0 " transform="matrix(0.1,0,0,-0.1,0,720)"/>
<path style="fill-rule:nonzero;fill:rgb(57.998657%,58.799744%,59.599304%);fill-opacity:1;stroke-width:10;stroke-linecap:butt;stroke-linejoin:miter;stroke:rgb(57.998657%,58.799744%,59.599304%);stroke-opacity:1;stroke-miterlimit:10;" d="M 3600 0 L 6483.320313 0 L 6483.320313 720 L 3600 720 Z M 3600 0 " transform="matrix(0.1,0,0,-0.1,0,720)"/>
<path style="fill-rule:nonzero;fill:rgb(13.699341%,12.199402%,12.5%);fill-opacity:1;stroke-width:10;stroke-linecap:butt;stroke-linejoin:miter;stroke:rgb(13.699341%,12.199402%,12.5%);stroke-opacity:1;stroke-miterlimit:10;" d="M 3610 720 L 6493.320313 720 L 6493.320313 6480 L 3610 6480 Z M 3610 720 " transform="matrix(0.1,0,0,-0.1,0,720)"/>
<path style="fill-rule:nonzero;fill:rgb(57.998657%,58.799744%,59.599304%);fill-opacity:1;stroke-width:10;stroke-linecap:butt;stroke-linejoin:miter;stroke:rgb(57.998657%,58.799744%,59.599304%);stroke-opacity:1;stroke-miterlimit:10;" d="M 3600 6480 L 6493.320313 6480 L 6493.320313 7200 L 3600 7200 Z M 3600 6480 " transform="matrix(0.1,0,0,-0.1,0,720)"/>
<path style=" stroke:none;fill-rule:nonzero;fill:rgb(13.699341%,12.199402%,12.5%);fill-opacity:1;" d="M 0 720 L 71 720 L 71 0 L 0 0 Z M 0 720 "/>
<path style="fill:none;stroke-width:10;stroke-linecap:butt;stroke-linejoin:miter;stroke:rgb(13.699341%,12.199402%,12.5%);stroke-opacity:1;stroke-miterlimit:10;" d="M -6.679688 0 L -6.679688 7200 L 710 7200 L 710 0 Z M -6.679688 0 " transform="matrix(0.1,0,0,-0.1,0,720)"/>
<path style="fill-rule:nonzero;fill:rgb(13.699341%,12.199402%,12.5%);fill-opacity:1;stroke-width:10;stroke-linecap:butt;stroke-linejoin:miter;stroke:rgb(13.699341%,12.199402%,12.5%);stroke-opacity:1;stroke-miterlimit:10;" d="M 710 0 L 3603.320313 0 L 3603.320313 720 L 710 720 Z M 710 0 " transform="matrix(0.1,0,0,-0.1,0,720)"/>
<path style="fill-rule:nonzero;fill:rgb(57.998657%,58.799744%,59.599304%);fill-opacity:1;stroke-width:10;stroke-linecap:butt;stroke-linejoin:miter;stroke:rgb(57.998657%,58.799744%,59.599304%);stroke-opacity:1;stroke-miterlimit:10;" d="M 720 720 L 3603.320313 720 L 3603.320313 6480 L 720 6480 Z M 720 720 " transform="matrix(0.1,0,0,-0.1,0,720)"/>
<path style="fill-rule:nonzero;fill:rgb(13.699341%,12.199402%,12.5%);fill-opacity:1;stroke-width:10;stroke-linecap:butt;stroke-linejoin:miter;stroke:rgb(13.699341%,12.199402%,12.5%);stroke-opacity:1;stroke-miterlimit:10;" d="M 710 6480 L 3603.320313 6480 L 3603.320313 7200 L 710 7200 Z M 710 6480 " transform="matrix(0.1,0,0,-0.1,0,720)"/>
<path style="fill-rule:nonzero;fill:rgb(13.699341%,12.199402%,12.5%);fill-opacity:1;stroke-width:10;stroke-linecap:butt;stroke-linejoin:miter;stroke:rgb(13.699341%,12.199402%,12.5%);stroke-opacity:1;stroke-miterlimit:10;" d="M 1433.320313 1440 L 2150 1440 L 2150 5760 L 1433.320313 5760 Z M 1433.320313 1440 " transform="matrix(0.1,0,0,-0.1,0,720)"/>
<path style="fill-rule:nonzero;fill:rgb(57.998657%,58.799744%,59.599304%);fill-opacity:1;stroke-width:10;stroke-linecap:butt;stroke-linejoin:miter;stroke:rgb(57.998657%,58.799744%,59.599304%);stroke-opacity:1;stroke-miterlimit:10;" d="M 3615.429688 1440 L 4332.109375 1440 L 4332.109375 3600 L 3615.429688 3600 Z M 3615.429688 1440 " transform="matrix(0.1,0,0,-0.1,0,720)"/>
<path style="fill-rule:nonzero;fill:rgb(57.998657%,58.799744%,59.599304%);fill-opacity:1;stroke-width:10;stroke-linecap:butt;stroke-linejoin:miter;stroke:rgb(57.998657%,58.799744%,59.599304%);stroke-opacity:1;stroke-miterlimit:10;" d="M 4325 1440 L 5041.679688 1440 L 5041.679688 2156.679688 L 4325 2156.679688 Z M 4325 1440 " transform="matrix(0.1,0,0,-0.1,0,720)"/>
<path style="fill-rule:nonzero;fill:rgb(57.998657%,58.799744%,59.599304%);fill-opacity:1;stroke-width:10;stroke-linecap:butt;stroke-linejoin:miter;stroke:rgb(57.998657%,58.799744%,59.599304%);stroke-opacity:1;stroke-miterlimit:10;" d="M 5038.320313 1440 L 5755 1440 L 5755 3600 L 5038.320313 3600 Z M 5038.320313 1440 " transform="matrix(0.1,0,0,-0.1,0,720)"/>
<path style="fill-rule:nonzero;fill:rgb(13.699341%,12.199402%,12.5%);fill-opacity:1;stroke-width:10;stroke-linecap:butt;stroke-linejoin:miter;stroke:rgb(13.699341%,12.199402%,12.5%);stroke-opacity:1;stroke-miterlimit:10;" d="M 2876.679688 1440 L 3603.320313 1440 L 3603.320313 3600 L 2876.679688 3600 Z M 2876.679688 1440 " transform="matrix(0.1,0,0,-0.1,0,720)"/>
<path style="fill-rule:nonzero;fill:rgb(13.699341%,12.199402%,12.5%);fill-opacity:1;stroke-width:10;stroke-linecap:butt;stroke-linejoin:miter;stroke:rgb(13.699341%,12.199402%,12.5%);stroke-opacity:1;stroke-miterlimit:10;" d="M 2160 2883.320313 L 2876.679688 2883.320313 L 2876.679688 3600 L 2160 3600 Z M 2160 2883.320313 " transform="matrix(0.1,0,0,-0.1,0,720)"/>
</g>
</svg>
